<?xml version="1.0" encoding="utf-8"?>
<!-- Generator: Adobe Illustrator 22.0.1, SVG Export Plug-In . SVG Version: 6.00 Build 0)  -->
<svg version="1.1" id="Ebene_1" xmlns="http://www.w3.org/2000/svg" xmlns:xlink="http://www.w3.org/1999/xlink" x="0px" y="0px"
	 viewBox="0 0 200 200" style="enable-background:new 0 0 200 200;" xml:space="preserve">
<g>
	<path d="M169.7,49.6c-6.4-16.1-21.1-28.8-43.6-28.8H65.7l0,0H28.5c-0.9,0-1.7,1.1-1.7,2.5c0,1.3,0.8,2.5,1.7,2.5H107c0,0,0,0,0,0
		h19.1c20.2,0,33.1,11.2,38.9,25.8c4.3,11.2,4.3,24.3,0,35.5c-5.8,14.6-18.7,25.8-38.9,25.8H96.4c-1.5,0-2.6,1.1-2.6,2.4v61.7
		c0,1.3,1.1,2.4,2.6,2.4c1.3,0,2.4-1.1,2.4-2.4v-58.9h27.3c22.6,0,37.2-12.9,43.6-28.8C174.4,76.5,174.4,62.1,169.7,49.6z"/>
	<path d="M123.5,82.3h-8.8c-1.3,0-2.4,1.1-2.4,2.4c0,1.3,1.1,2.4,2.4,2.4h8.8c8.6,0,14-4.5,16.5-10.5c1.9-4.5,1.9-9.9,0-14.4
		c-2.6-6-8-10.5-16.5-10.5H96.4c-1.5,0-2.6,1.1-2.6,2.4c0,1.5,1.1,2.6,2.6,2.6h27.1c6.2,0,10.3,3.4,12,7.5c1.3,3.4,1.3,7.3,0,10.5
		C133.8,79,129.5,82.3,123.5,82.3z"/>
	<path d="M67.6,51.3H29.1c-1.3,0-2.4,1.1-2.4,2.4c0,1.5,1.1,2.8,2.4,2.8H65v120.1c0,1.3,1.1,2.4,2.6,2.4c1.3,0,2.4-1.1,2.4-2.4V53.7
		C70,52.4,68.9,51.3,67.6,51.3z"/>
</g>
</svg>
